<svg xmlns="http://www.w3.org/2000/svg" width="340" height="150" viewBox="0 0 340 150">
  <g id="Group_3" data-name="Group 3" transform="translate(-470 -10)">
    <path id="Subtraction_2" data-name="Subtraction 2" d="M318,128H0V0H318V128h0ZM165.728,85.52a.252.252,0,0,0-.288.224c-.341,1.025-1.439,5.278-3.263,12.64l-2.785,11.136a2.67,2.67,0,0,0-.1.607,1.017,1.017,0,0,0,.112.512.321.321,0,0,0,.272.193c.149,0,.257-.118.32-.352a53.828,53.828,0,0,0,1.92-6.16c.871-3.2,1.754-6.619,2.624-10.176s1.452-6.123,1.728-7.632l.032-.256a.843.843,0,0,0-.16-.528A.5.5,0,0,0,165.728,85.52Zm-28.992,0a.252.252,0,0,0-.288.224c-.34,1.021-1.438,5.274-3.264,12.64L130.4,109.52a2.684,2.684,0,0,0-.1.607,1.015,1.015,0,0,0,.112.512.317.317,0,0,0,.272.193c.148,0,.256-.118.319-.352a53.588,53.588,0,0,0,1.921-6.16c.865-3.174,1.747-6.6,2.624-10.176.87-3.555,1.452-6.123,1.728-7.632l.032-.256a.843.843,0,0,0-.16-.528A.5.5,0,0,0,136.736,85.52Zm58.56,1.057h0c1.019.064,1.535,1.442,1.535,4.1a28.56,28.56,0,0,1-.864,7.1,47.719,47.719,0,0,1-2.752,7.552,10.555,10.555,0,0,0-.48,1.248,8.822,8.822,0,0,1-1.28,2.56v.128a.853.853,0,0,0,.336.688,1.264,1.264,0,0,0,.816.272,20.982,20.982,0,0,0,2.464-.16l.7-.031c.747-.064,1.328-.1,1.728-.1a.9.9,0,0,0,.416-.7c0-.276-.226-.577-.672-.9a21.925,21.925,0,0,0-3.775.32c.3-.9.786-2.2,1.44-3.84.549-1.352,1.109-2.806,1.664-4.32a31.574,31.574,0,0,0,1.264-4.528,23.439,23.439,0,0,0,.528-4.72v-.864a7.1,7.1,0,0,1-.048-.72c-.011-.326-.038-.686-.08-1.072a7.065,7.065,0,0,0-.481-1.7,3.022,3.022,0,0,0-1.023-1.216,3.287,3.287,0,0,0-1.824-.48v.032a1.531,1.531,0,0,0-1.152.512,3.719,3.719,0,0,0-.9,2.528c0,.658.259.992.769.992a.78.78,0,0,0,.64-.336,1.733,1.733,0,0,0,.319-.848c.128-.829.365-1.335.7-1.5Zm-21.248,0h0c1.019.064,1.535,1.442,1.535,4.1a28.56,28.56,0,0,1-.864,7.1,47.792,47.792,0,0,1-2.751,7.552,10.417,10.417,0,0,0-.481,1.248,8.823,8.823,0,0,1-1.28,2.56v.128a.853.853,0,0,0,.336.688,1.264,1.264,0,0,0,.816.272,20.982,20.982,0,0,0,2.464-.16l.7-.031c.747-.064,1.328-.1,1.728-.1a.9.9,0,0,0,.416-.7c0-.276-.226-.577-.671-.9a21.931,21.931,0,0,0-3.776.32c.3-.9.786-2.2,1.44-3.84.558-1.374,1.118-2.827,1.664-4.32a31.571,31.571,0,0,0,1.264-4.528,23.436,23.436,0,0,0,.528-4.72v-.864c-.021-.145-.037-.38-.048-.72s-.038-.686-.08-1.072a7.065,7.065,0,0,0-.481-1.7,3.022,3.022,0,0,0-1.023-1.216,3.287,3.287,0,0,0-1.824-.48v.032a1.533,1.533,0,0,0-1.152.512,3.719,3.719,0,0,0-.9,2.528c0,.658.259.992.769.992a.78.78,0,0,0,.64-.336,1.726,1.726,0,0,0,.319-.848c.128-.829.365-1.335.7-1.5Zm-50.72.031a3.825,3.825,0,0,1,.736.064,87.628,87.628,0,0,1-.848,10.352,82.928,82.928,0,0,1-2.032,10.129l-.224.768a6.27,6.27,0,0,0-.352,1.7l.607.544a1.059,1.059,0,0,0,.88-.544,2.078,2.078,0,0,0,.368-1.184v-.288a29.914,29.914,0,0,0,1.072-4.688c.329-2,.593-4.064.784-6.128.573-5.73,1.036-9.476,1.376-11.136a1.351,1.351,0,0,0-.383-.608,1.25,1.25,0,0,0-.5-.239,4.175,4.175,0,0,0-.752-.049h-.576c-2.675,0-4.032.226-4.032.672a.793.793,0,0,0,.208.528,1.692,1.692,0,0,0,.528.4l1.088-.1C122.427,86.672,123.116,86.608,123.328,86.608Zm26.465.288h.352c.722,0,1.088.506,1.088,1.5v.608a4.345,4.345,0,0,0-.032.544c0,1.993.161,5.093.48,9.216.319,4.1.481,7.242.481,9.344,0,.361-.237.544-.7.544a1.183,1.183,0,0,0-.671.128.591.591,0,0,0-.16.48c0,.361.075.6.224.7a1.383,1.383,0,0,0,.768.159h.96c2.42,0,3.648-.312,3.648-.928,0-.531-.452-.8-1.344-.8a1.7,1.7,0,0,0-.384.032,3.148,3.148,0,0,0-.448.032,2.722,2.722,0,0,1-.352.032V108.3c0-1.958-.118-4.52-.352-7.616-.234-3.5-.352-6.04-.352-7.553a25.4,25.4,0,0,0-.224-2.944,27.337,27.337,0,0,1-.256-2.912,6.7,6.7,0,0,1,.192-1.345c-.17-.36-.719-.544-1.632-.544-1.72,0-2.592.28-2.592.832,0,.468.312.7.928.7Zm-8.609,0h.352c.722,0,1.088.506,1.088,1.5v.608a4.357,4.357,0,0,0-.031.544c0,2,.161,5.105.48,9.216s.48,7.246.48,9.344c0,.361-.237.544-.7.544a1.189,1.189,0,0,0-.672.128.594.594,0,0,0-.159.48c0,.361.075.6.223.7a1.385,1.385,0,0,0,.769.159h.959c2.421,0,3.649-.312,3.649-.928,0-.531-.452-.8-1.345-.8a1.692,1.692,0,0,0-.383.032,3.149,3.149,0,0,0-.448.032,2.711,2.711,0,0,1-.352.032V108.3c0-1.958-.118-4.52-.352-7.616-.233-3.5-.352-6.041-.352-7.553a25.392,25.392,0,0,0-.224-2.944,27.153,27.153,0,0,1-.257-2.912,6.645,6.645,0,0,1,.193-1.345c-.17-.36-.719-.544-1.633-.544-1.72,0-2.592.28-2.592.832,0,.468.312.7.928.7Zm63.808-1.312a2.148,2.148,0,0,0-2.176,1.569,10.335,10.335,0,0,0-.544,3.744V91.92a69.652,69.652,0,0,0,.968,13.489c.642,2.983,1.619,4.5,2.9,4.5a2.778,2.778,0,0,0,2.568-2.008,16.226,16.226,0,0,0,.856-6.024,48.73,48.73,0,0,0-1.144-12.216C207.665,86.954,206.51,85.584,204.992,85.584Zm-21.248,0a2.148,2.148,0,0,0-2.176,1.569,10.336,10.336,0,0,0-.544,3.744V91.92a69.652,69.652,0,0,0,.968,13.489c.642,2.983,1.619,4.5,2.9,4.5a2.778,2.778,0,0,0,2.568-2.008,16.226,16.226,0,0,0,.856-6.024,48.73,48.73,0,0,0-1.144-12.216C186.417,86.954,185.262,85.584,183.744,85.584Zm-71.616,0a2.148,2.148,0,0,0-2.176,1.569,10.331,10.331,0,0,0-.544,3.744V91.92a69.622,69.622,0,0,0,.968,13.489c.642,2.983,1.62,4.5,2.9,4.5a2.778,2.778,0,0,0,2.568-2.008,16.225,16.225,0,0,0,.856-6.024,48.72,48.72,0,0,0-1.144-12.216C114.8,86.954,113.646,85.584,112.128,85.584Zm173.44-45.768h0c0,1.575-.048,3.01-.14,4.264l-.139,4.34c0,1.585.188,4.529.56,8.75.325,3.761.49,6.847.49,9.17V75.3c0,2.88.73,4.34,2.17,4.34a2.075,2.075,0,0,0,1.679-.91,3.362,3.362,0,0,0,.7-2.1,4.305,4.305,0,0,0-.35-1.329c0-.047-.012-.192-.035-.42s-.056-.54-.1-.98l-.211-2.45a22.419,22.419,0,0,1-.21-2.52l.14-3.71.069-3.711c0-3.443-.165-8.341-.49-14.559-.279-6.694-.42-11.781-.42-15.12a1.583,1.583,0,0,0-.8-1.365,3.217,3.217,0,0,0-1.786-.525c-.7,0-1.473.989-2.309,2.939a51.449,51.449,0,0,0-2.59,7.56c-1.49,5.263-3,11.222-4.48,17.71l-.419,1.68c-.232,1.067-.539,2.244-.911,3.5-.462-2.454-1.522-6.5-3.15-12.04s-3.272-10.538-4.9-14.91-2.756-6.58-3.36-6.58a3.867,3.867,0,0,0-1.925.455,1.425,1.425,0,0,0-.806,1.3,2.364,2.364,0,0,0,.42,1.329c0,4.737-.353,11.943-1.05,21.42s-1.049,16.682-1.049,21.42a1.51,1.51,0,0,0,.63,1.156,2.052,2.052,0,0,0,1.329.525,2.279,2.279,0,0,0,1.821-.595,2.775,2.775,0,0,0,.49-1.785v-.98a7.416,7.416,0,0,1-.07-1.05c0-1.6.047-4.567.14-8.82.137-4.365.4-9.97.77-16.66l.42-7.91c1.349,4.233,2.868,9.744,4.515,16.38s2.485,11.045,2.485,13.09a2.993,2.993,0,0,0,.8,2.205,2.9,2.9,0,0,0,2.136.805c.882,0,2.036-2.332,3.43-6.93,1.444-4.8,2.857-10.075,4.2-15.68,1.341-5.78,2.118-9.028,2.308-9.654ZM96.08,76.28h0a20.013,20.013,0,0,1,6.229.84,3.281,3.281,0,0,0,1.54-.63,1.468,1.468,0,0,0,.63-1.19c0-1.394-1.272-2.1-3.78-2.1a15.079,15.079,0,0,0-1.61.07,8.387,8.387,0,0,0-.875.035c-.215.024-.363.035-.455.035a1.857,1.857,0,0,1-1.732-1.208,8.8,8.8,0,0,1-.577-3.623c0-2.1.047-3.987.14-5.6l.14-5.53V56.54a9.71,9.71,0,0,1,.35-2.939c0-3.124-.024-5.951-.07-8.4-.047-2.5-.07-5.345-.07-8.47a24.366,24.366,0,0,1,.21-2.66,26.147,26.147,0,0,0,.211-2.66,1.795,1.795,0,0,0-1.751-1.75c-.813,0-1.431.559-1.838,1.662a15.391,15.391,0,0,0-.612,4.987c0,1.438.141,3.652.42,6.581v.49c0,3.433-.141,8.685-.42,15.61-.325,6.5-.49,11.774-.49,15.681a2.468,2.468,0,0,0,.595,1.575,1.8,1.8,0,0,0,1.435.734,4.437,4.437,0,0,0,2.38-.7ZM66.89,29.87c-.557,0-1.051.495-1.47,1.47,0,.366.046,1.42.14,3.22a9.662,9.662,0,0,0,.07,1.4l.07,5.389c0,7.25.071,13.467.21,18.481a52.24,52.24,0,0,0,.491,7.7,18.087,18.087,0,0,0,2.17,6.65,5.789,5.789,0,0,0,2.17,2.135,6.141,6.141,0,0,0,3.01.735A5.13,5.13,0,0,0,77.7,75.108a15.514,15.514,0,0,0,2.821-5.828c1.5-5.156,2.258-13,2.258-23.31a2.592,2.592,0,0,0-.07-.63v-.56l.14-2.94a26.476,26.476,0,0,0,.139-2.87,26.419,26.419,0,0,1,.28-3.5c.14-1.629.211-2.83.211-3.57a11.845,11.845,0,0,0-.07-1.609,2.371,2.371,0,0,0-.665-1.226,1.951,1.951,0,0,0-1.435-.525,2.172,2.172,0,0,0-1.5.385,1.683,1.683,0,0,0-.385,1.225,1.811,1.811,0,0,0,.07.56v4.55c0,12.5-.424,22-1.26,28.245a31.392,31.392,0,0,1-1.575,7.061c-.626,1.562-1.368,2.354-2.205,2.354a4.12,4.12,0,0,1-3.308-1.3,5.891,5.891,0,0,1-1.1-3.884c0-1.119-.165-3.616-.49-7.42a74.1,74.1,0,0,1-.49-7.42V33.86a5.783,5.783,0,0,0-.665-2.73C67.954,30.294,67.447,29.87,66.89,29.87ZM242.1,64.66h0l6.929,1.05.28,1.47a60.405,60.405,0,0,1,.7,7.141,2,2,0,0,0,.77,1.82,4.557,4.557,0,0,0,2.381.49,1.853,1.853,0,0,0,1.12-1.959V74.6a31.569,31.569,0,0,0-.63-4.34c-.464-2.459-.7-3.873-.7-4.2a13.163,13.163,0,0,0-.35-2.1,16.344,16.344,0,0,1-.35-2.17,138.091,138.091,0,0,0-1.4-15.12,125.265,125.265,0,0,1-1.47-15.82,1.461,1.461,0,0,0-.7-1.3A3.025,3.025,0,0,0,247,29.1h-2.38a5.436,5.436,0,0,0-.8,2.31c-.162,1.014-.315,2.4-.455,4.13-.047.846-.095,1.494-.14,1.925-.047.447-.069.756-.069.945a312.789,312.789,0,0,1-7,35.49l-.07.28-.14.35a1.575,1.575,0,0,0,.7,1.3,2.52,2.52,0,0,0,1.54.525,1.677,1.677,0,0,0,1.4-.63c.6-.745,1.052-2.275,1.33-4.55.511-3.253.911-5.443,1.19-6.51Zm-129.08,0h0l6.929,1.05.28,1.47a60.646,60.646,0,0,1,.7,7.141,2,2,0,0,0,.77,1.82,4.557,4.557,0,0,0,2.381.49,1.855,1.855,0,0,0,1.12-1.959V74.6a31.569,31.569,0,0,0-.63-4.34c-.471-2.5-.7-3.871-.7-4.2a13,13,0,0,0-.35-2.1,16.515,16.515,0,0,1-.349-2.17,138.37,138.37,0,0,0-1.4-15.12,125.264,125.264,0,0,1-1.47-15.82,1.463,1.463,0,0,0-.7-1.3,3.029,3.029,0,0,0-1.68-.455h-2.38a5.45,5.45,0,0,0-.806,2.31c-.164,1.032-.317,2.421-.454,4.13-.047.844-.094,1.492-.14,1.925s-.07.757-.07.945a312.9,312.9,0,0,1-7,35.49l-.07.28-.14.35a1.579,1.579,0,0,0,.7,1.3,2.52,2.52,0,0,0,1.54.525,1.677,1.677,0,0,0,1.4-.63c.6-.741,1.05-2.272,1.33-4.55.509-3.244.909-5.434,1.19-6.51Zm-64.96,0h0l6.929,1.05.28,1.47a60.393,60.393,0,0,1,.7,7.141,2,2,0,0,0,.77,1.82,4.557,4.557,0,0,0,2.381.49,1.853,1.853,0,0,0,1.12-1.959V74.6a31.759,31.759,0,0,0-.63-4.34c-.464-2.459-.7-3.873-.7-4.2a13.164,13.164,0,0,0-.35-2.1,16.358,16.358,0,0,1-.35-2.17,138.369,138.369,0,0,0-1.4-15.12,125.264,125.264,0,0,1-1.47-15.82,1.461,1.461,0,0,0-.7-1.3,3.025,3.025,0,0,0-1.68-.455H50.58a5.436,5.436,0,0,0-.8,2.31c-.162,1.012-.315,2.4-.455,4.13-.047.846-.095,1.494-.14,1.925-.047.447-.069.756-.069.945a312.786,312.786,0,0,1-7,35.49l-.07.28-.139.35a1.575,1.575,0,0,0,.7,1.3,2.52,2.52,0,0,0,1.54.525,1.677,1.677,0,0,0,1.4-.63c.6-.744,1.052-2.275,1.33-4.55.512-3.255.912-5.445,1.19-6.51Zm169.4-34.93a2.462,2.462,0,0,0-1.679.7,2.132,2.132,0,0,0-.77,1.61c0,.752.115,2.789.35,6.23.279,3.115.42,5.446.42,6.93,0,4.057-.024,7.754-.07,10.99l-.14,11.06c0,6.085.612,9.17,1.82,9.17h5.04a19.358,19.358,0,0,0,3.22-2.1,16.166,16.166,0,0,0,4.06-5.251,22.257,22.257,0,0,0,1.61-6.23,69.675,69.675,0,0,0,.28-7.069V51.92l.07-1.89c.047-.509.07-1.075.07-1.68a22.085,22.085,0,0,0-5.531-14.49,12.736,12.736,0,0,0-4.025-3.045A10.9,10.9,0,0,0,217.46,29.73ZM153.34,24.27a4.087,4.087,0,0,0-3.15,1.3A5.368,5.368,0,0,0,149,29.31v5.81c0,1.129.071,2.754.21,4.83.186,1.91.28,3.512.28,4.76a28.354,28.354,0,0,0-1.54,3.08c-.371.65-.807,1.521-1.3,2.59-.5,1.1-.9,1.988-1.225,2.73-.095.331-.224.708-.385,1.12a14,14,0,0,0-.454,1.4,11.45,11.45,0,0,0-.77,2.94,37.254,37.254,0,0,0-.56,6.37,13.187,13.187,0,0,0,1.19,5.25,11.7,11.7,0,0,0,3.57,4.48,8.016,8.016,0,0,0,4.9,1.75,14.505,14.505,0,0,0,7.91-2.66,11.469,11.469,0,0,0,6.72,2.589,5.734,5.734,0,0,0,2.695-.49,1.907,1.907,0,0,0,.875-1.82l-1.26-1.05-1.4.07-1.471.14a6.169,6.169,0,0,1-4.41-2.17c1.9-2.555,2.87-7.595,2.87-14.98h1.821l.14.07a6.189,6.189,0,0,0,2.555-.49,1.58,1.58,0,0,0,1.085-1.47c0-.929-.683-1.541-2.03-1.82a14.366,14.366,0,0,1-3.535.664c-1.65.163-3.122.246-4.375.246V55a.563.563,0,0,1,.105.14l.016.032,0,.005.009.018.077.154.14.35.21.28c.047.139.259.21.63.21v.35a30.333,30.333,0,0,1-2.17,12.32,19.51,19.51,0,0,1-2.87-5.46,83.973,83.973,0,0,1-2.939-8.75,28.414,28.414,0,0,1-1.26-6.51,5.373,5.373,0,0,1,1.19-2.381,7.014,7.014,0,0,1,.63-.979,25.424,25.424,0,0,0,4.3-6.755,19.549,19.549,0,0,0,1.365-7.455,5.659,5.659,0,0,0-2.24-4.41A7.557,7.557,0,0,0,153.34,24.27ZM29.09,22.45a3.111,3.111,0,0,0-2.66,1.61c1.208,5.759,1.82,14.167,1.82,24.99,0,3.116-.071,7.567-.21,13.23L27.9,74.04a2.852,2.852,0,0,0,.455,1.644,1.419,1.419,0,0,0,1.225.665,2.028,2.028,0,0,0,1.75-.77,3.522,3.522,0,0,0,.56-2.1c0-1.973-.071-4.54-.21-7.629,0-1.491-.024-2.645-.07-3.43L31.47,58.71l-.14-7.069a15.814,15.814,0,0,0,6.51-6.44,19.428,19.428,0,0,0,2.24-9.38,16.011,16.011,0,0,0-2.73-9.1,10.364,10.364,0,0,0-3.535-3.115A9.809,9.809,0,0,0,29.09,22.45ZM194.08,63.26h0a37.322,37.322,0,0,1,4.759.63,10,10,0,0,1,3.43,1.12v9.17a1.7,1.7,0,0,0,.526,1.4A2.638,2.638,0,0,0,204.44,76a2.079,2.079,0,0,0,2.309-2.38c0-2.788-.236-6.579-.7-11.27a104.512,104.512,0,0,1-.77-10.64,132.1,132.1,0,0,0-1.4-14.35c-.882-7.1-1.329-11.65-1.329-13.51a3.8,3.8,0,0,0-2.24-.56c-.975,0-2.012,1.625-3.081,4.829a89.51,89.51,0,0,0-2.765,10.78c-.86,4.279-1.814,9.507-2.835,15.54L189.32,67.25c-.649,3.62-1.238,5.834-1.751,6.58.279.929,1.315,1.4,3.08,1.4a10.492,10.492,0,0,0,.841-1.925,24.628,24.628,0,0,0,.77-2.905c.237-1.139.374-1.848.42-2.17l.28-1.4a11.96,11.96,0,0,1,1.12-3.569Zm12.352,45.172c-.319,0-.61-.221-.864-.656A5.836,5.836,0,0,1,204.96,106a29.793,29.793,0,0,1-.607-4.832c-.065-1.861-.1-3.012-.1-3.52a14.844,14.844,0,0,0-.16-1.568,13.239,13.239,0,0,1-.159-1.536l-.065-3.2c-.042-.919-.064-1.974-.064-3.136a2.955,2.955,0,0,1,.176-1.12,2.113,2.113,0,0,1,.656-.8,2.007,2.007,0,0,1,1.328.9,6.3,6.3,0,0,1,.944,2.176,29.748,29.748,0,0,1,.992,6.079c.128,2.352.193,4.269.193,5.7,0,.612-.021,1.162-.064,1.633a17.82,17.82,0,0,1-.769,4.7C207.051,108.109,206.771,108.432,206.432,108.432Zm-21.248,0c-.319,0-.61-.221-.864-.656a5.857,5.857,0,0,1-.608-1.776,29.793,29.793,0,0,1-.607-4.832c-.065-1.86-.1-3.012-.1-3.52a14.82,14.82,0,0,0-.16-1.568,13.239,13.239,0,0,1-.159-1.536l-.064-3.2c-.043-.912-.065-1.967-.065-3.136a2.955,2.955,0,0,1,.176-1.12,2.113,2.113,0,0,1,.656-.8,2.007,2.007,0,0,1,1.327.9,6.279,6.279,0,0,1,.944,2.176,29.806,29.806,0,0,1,.993,6.079c.127,2.358.192,4.274.192,5.7,0,.612-.021,1.162-.064,1.633a17.822,17.822,0,0,1-.769,4.7C185.8,108.109,185.523,108.432,185.184,108.432Zm-71.616,0c-.319,0-.61-.221-.864-.656A5.836,5.836,0,0,1,112.1,106a29.687,29.687,0,0,1-.607-4.832c-.064-1.809-.1-2.993-.1-3.52a14.836,14.836,0,0,0-.16-1.568,13.137,13.137,0,0,1-.16-1.536l-.064-3.2c-.042-.919-.064-1.974-.064-3.136a2.94,2.94,0,0,1,.176-1.12,2.113,2.113,0,0,1,.656-.8,2.007,2.007,0,0,1,1.327.9,6.3,6.3,0,0,1,.944,2.176,29.809,29.809,0,0,1,.992,6.079c.128,2.369.193,4.285.193,5.7,0,.616-.022,1.165-.065,1.633a17.788,17.788,0,0,1-.768,4.7C114.188,108.109,113.908,108.432,113.568,108.432ZM153.55,73.48a5.975,5.975,0,0,1-3.22-.875,6.431,6.431,0,0,1-2.24-2.415,13,13,0,0,1-1.609-6.44,25.5,25.5,0,0,1,3.71-13.72,56.877,56.877,0,0,0,3.132,11.585,47.748,47.748,0,0,0,5.338,9.975,6.486,6.486,0,0,1-2.345,1.3A8.454,8.454,0,0,1,153.55,73.48Zm66.921-.63h0V71.17c0-3.81-.165-9.015-.49-15.47-.371-7.283-.56-12.464-.56-15.4a48.075,48.075,0,0,1,.49-7.28,6,6,0,0,1,3.583,1.719,11.383,11.383,0,0,1,2.56,4.249c1.359,3.657,2.048,9.067,2.048,16.082,0,1.093-.023,1.894-.069,2.45a42.173,42.173,0,0,1-.77,6.44,21.241,21.241,0,0,1-.875,3.325,14.215,14.215,0,0,1-1.3,2.835,6.634,6.634,0,0,1-2.03,2A4.86,4.86,0,0,1,220.471,72.85Zm28.069-9.66h0c-3.39-.279-5.463-.656-6.16-1.12.745-5.591,2.135-13.951,4.13-24.85l.7,7.279a148.2,148.2,0,0,1,1.12,16.1,13.538,13.538,0,0,0,.211,2.589Zm-129.081,0h0c-3.39-.279-5.462-.656-6.159-1.12.745-5.591,2.135-13.951,4.13-24.85l.7,7.279a148.212,148.212,0,0,1,1.12,16.1,13.564,13.564,0,0,0,.21,2.589Zm-64.959,0h0c-3.39-.279-5.463-.656-6.16-1.12.745-5.589,2.135-13.95,4.13-24.85l.7,7.279a148.213,148.213,0,0,1,1.12,16.1,13.539,13.539,0,0,0,.21,2.589Zm146.3-2.24a22.692,22.692,0,0,1-6.23-.84,85.922,85.922,0,0,1,1.12-8.54c.7-4.279,1.464-8.342,2.275-12.075s1.461-5.871,1.925-6.335v.561c0,2.371.542,8.895,1.61,19.39.325,3.016.56,5.583.7,7.63A6.048,6.048,0,0,1,200.8,60.95ZM31.19,48.28v0L30.77,37.22c-.279-4.974-.42-8.7-.42-11.06l1.82,1.329a12.159,12.159,0,0,1,2.59,2.171c.048.094.265.433.63.979a5.424,5.424,0,0,1,.77,1.68,29.928,29.928,0,0,1,.35,4.06v.07a15.32,15.32,0,0,1-1.3,6.405,17.766,17.766,0,0,1-4.023,5.422Zm121.1-5.18v-.77c0-1.772-.024-3.374-.07-4.76l-.069-4.69V29.17c.558-1.115,1.17-1.68,1.82-1.68.743,0,1.508.66,2.275,1.96a7.051,7.051,0,0,1,1.155,3.43,11.063,11.063,0,0,1-1.575,4.656,41.231,41.231,0,0,1-3.533,5.562Z" transform="translate(481 21)" fill="#fff"/>
    <g id="Rectangle_2" data-name="Rectangle 2" transform="translate(470 10)" fill="none" stroke="#fff" stroke-width="5">
      <rect width="340" height="150" stroke="none"/>
      <rect x="2.5" y="2.5" width="335" height="145" fill="none"/>
    </g>
  </g>
</svg>
